<?xml version="1.0" encoding="UTF-8"?> <svg xmlns="http://www.w3.org/2000/svg" xmlns:xlink="http://www.w3.org/1999/xlink" version="1.1" width="512" height="512" x="0" y="0" viewBox="0 0 512 512" style="enable-background:new 0 0 512 512" xml:space="preserve" class=""><g><path d="M262.402 313.771 506.606 69.557c5.858-5.858 5.858-15.355 0-21.213l-43.45-43.45c-5.857-5.858-15.355-5.858-21.213 0L419.96 26.877l-16.554-16.554c-5.857-5.857-15.355-5.858-21.213 0s-5.858 15.355 0 21.213l16.553 16.553-22.236 22.238-21.983-21.983c-5.857-5.858-15.355-5.858-21.213 0L322.19 59.467l-16.553-16.553c-5.857-5.858-15.355-5.858-21.213 0s-5.858 15.355 0 21.213l16.553 16.553-11.372 11.372-16.549-16.549c-5.857-5.858-15.355-5.858-21.213 0s-5.858 15.355 0 21.213l16.549 16.549-11.119 11.119c-5.858 5.858-5.858 15.355 0 21.213l21.983 21.983-81.527 81.519c-22.676-4.674-46.028.297-64.746 13.656-32.387-23.033-77.738-20.042-106.771 8.98-29.018 29.028-32.009 74.381-8.971 106.773-23.043 32.389-20.052 77.744 8.975 106.78 16.184 16.178 37.438 24.267 58.693 24.266 16.875 0 33.748-5.098 48.083-15.296 32.391 23.037 77.746 20.046 106.776-8.974 29.018-29.029 32.009-74.379 8.977-106.767 13.36-18.718 18.331-42.072 13.657-64.746zM343.92 80.164l21.983 21.983c5.857 5.858 15.355 5.858 21.213 0l65.434-65.433 22.237 22.237-224.968 224.977a83.267 83.267 0 0 0-10.052-12.195 83.305 83.305 0 0 0-12.194-10.051l83.503-83.495c5.858-5.858 5.858-15.355 0-21.213l-21.983-21.983zM218.554 389.116c20.661 20.662 20.66 54.289.002 74.955-10.335 10.331-23.905 15.496-37.48 15.494-13.572-.001-27.148-5.166-37.48-15.494-5.858-5.856-15.354-5.855-21.211.002-20.661 20.661-54.288 20.662-74.955.001-20.663-20.67-20.664-54.297-.002-74.959 5.857-5.857 5.858-15.353.002-21.211-20.659-20.667-20.659-54.293-.004-74.957 10.337-10.333 23.909-15.498 37.484-15.498 13.571 0 27.145 5.166 37.475 15.496 5.855 5.857 15.351 5.858 21.21.003 14.205-14.198 34.896-19.141 54.004-12.899 7.937 2.589 14.987 6.928 20.956 12.896 5.968 5.968 10.307 13.019 12.897 20.962 6.241 19.102 1.298 39.792-12.9 53.998-5.857 5.859-5.855 15.354.002 21.211zM465 417.5c-25.916 0-47 21.084-47 47s21.084 47 47 47 47-21.084 47-47-21.084-47-47-47zm0 64c-9.374 0-17-7.626-17-17s7.626-17 17-17 17 7.626 17 17-7.626 17-17 17z" fill="#8e95ab" opacity="1" data-original="#000000"></path><path d="M132 332.5c-25.916 0-47 21.084-47 47s21.084 47 47 47 47-21.084 47-47-21.084-47-47-47zm0 64c-9.374 0-17-7.626-17-17s7.626-17 17-17 17 7.626 17 17-7.626 17-17 17zM80 58.5h13v13c0 8.284 6.716 15 15 15s15-6.716 15-15v-13h13c8.284 0 15-6.716 15-15s-6.716-15-15-15h-13v-13c0-8.284-6.716-15-15-15s-15 6.716-15 15v13H80c-8.284 0-15 6.716-15 15s6.716 15 15 15z" fill="#8e95ab" opacity="1" data-original="#000000"></path><circle cx="15" cy="119.501" r="15" fill="#8e95ab" opacity="1" data-original="#000000"></circle><circle cx="136" cy="167.501" r="15" fill="#8e95ab" opacity="1" data-original="#000000"></circle><circle cx="360" cy="375.501" r="14.999" fill="#8e95ab" opacity="1" data-original="#000000"></circle><circle cx="456" cy="247.503" r="14.998" fill="#8e95ab" opacity="1" data-original="#000000"></circle></g></svg> 